<?xml version="1.0" encoding="utf-8"?>
<svg fill="#000000" width="800px" height="800px" viewBox="0 0 56 56" xmlns="http://www.w3.org/2000/svg" xmlns:bx="https://boxy-svg.com"><defs><bx:export><bx:file format="svg" path="Unbetitelt.svg"/></bx:export></defs><g style="" transform="matrix(1.120379, 0, 0, 1.120379, -1.143298, -8.871584)"><path d="M 24.775 48.253 L 23.882 49.995 C 23.71 50.343 23.366 50.534 22.927 50.471 C 22.536 50.391 22.27 50.106 22.207 49.679 L 21.94 47.762 C 21.158 47.558 20.391 47.255 19.64 46.924 L 18.246 48.206 C 17.948 48.492 17.572 48.554 17.182 48.333 C 16.838 48.143 16.696 47.762 16.774 47.351 L 17.166 45.451 C 16.508 44.992 15.867 44.469 15.286 43.883 L 13.549 44.628 C 13.158 44.786 12.781 44.707 12.485 44.342 C 12.218 44.057 12.188 43.646 12.421 43.297 L 13.424 41.651 C 12.97 40.986 12.594 40.272 12.234 39.513 L 10.308 39.608 C 9.901 39.624 9.557 39.402 9.431 39.007 C 9.307 38.611 9.415 38.23 9.745 37.977 L 11.247 36.773 C 11.044 36.014 10.872 35.19 10.825 34.352 L 9.009 33.765 C 8.602 33.623 8.382 33.321 8.382 32.895 C 8.382 32.467 8.602 32.165 9.009 32.039 L 10.825 31.453 C 10.872 30.598 11.044 29.807 11.247 29.031 L 9.745 27.811 C 9.415 27.574 9.307 27.21 9.431 26.814 C 9.557 26.419 9.901 26.197 10.308 26.212 L 12.234 26.291 C 12.594 25.531 12.97 24.818 13.439 24.154 L 12.406 22.49 C 12.203 22.174 12.234 21.763 12.485 21.478 C 12.781 21.113 13.158 21.018 13.549 21.192 L 15.286 21.905 C 15.867 21.351 16.508 20.812 17.166 20.353 L 16.774 18.469 C 16.696 18.042 16.838 17.662 17.182 17.471 C 17.557 17.265 17.932 17.298 18.246 17.614 L 19.655 18.865 C 20.391 18.532 21.158 18.263 21.94 18.026 L 22.207 16.125 C 22.27 15.714 22.536 15.414 22.927 15.35 C 23.366 15.286 23.71 15.46 23.882 15.809 L 24.775 17.551 C 25.213 17.52 25.589 17.487 26.012 17.487 C 26.418 17.487 26.795 17.52 27.217 17.551 L 28.126 15.809 C 28.298 15.46 28.643 15.286 29.064 15.35 C 29.457 15.414 29.737 15.714 29.785 16.125 L 30.066 18.042 C 30.834 18.263 31.6 18.532 32.353 18.865 L 33.762 17.614 C 34.059 17.298 34.434 17.265 34.826 17.471 C 35.17 17.662 35.312 18.042 35.234 18.469 L 34.842 20.353 C 35.484 20.812 36.127 21.351 36.705 21.905 L 38.459 21.192 C 38.85 21.018 39.21 21.113 39.508 21.478 C 39.774 21.763 39.805 22.174 39.586 22.507 L 38.568 24.154 C 39.037 24.818 39.414 25.531 39.774 26.291 L 41.684 26.212 C 42.091 26.197 42.435 26.419 42.576 26.814 C 42.701 27.21 42.576 27.574 42.248 27.811 L 40.76 29.031 C 40.964 29.807 41.121 30.598 41.183 31.453 L 42.999 32.039 C 43.391 32.182 43.642 32.483 43.642 32.895 C 43.642 33.321 43.391 33.623 42.999 33.765 L 41.183 34.335 C 41.121 35.19 40.964 36.014 40.76 36.773 L 42.248 37.977 C 42.576 38.23 42.701 38.611 42.576 39.007 C 42.435 39.402 42.091 39.624 41.684 39.608 L 39.774 39.513 C 39.414 40.272 39.037 40.986 38.568 41.651 L 39.586 43.297 C 39.805 43.646 39.774 44.057 39.508 44.342 C 39.21 44.707 38.85 44.786 38.459 44.628 L 36.705 43.883 C 36.127 44.469 35.484 44.992 34.842 45.451 L 35.234 47.351 C 35.312 47.762 35.17 48.143 34.826 48.333 C 34.434 48.554 34.059 48.492 33.762 48.206 L 32.353 46.924 C 31.6 47.255 30.834 47.558 30.066 47.762 L 29.785 49.679 C 29.737 50.106 29.457 50.391 29.064 50.471 C 28.643 50.534 28.298 50.343 28.126 49.995 L 27.217 48.253 C 26.795 48.285 26.418 48.333 26.012 48.333 C 25.589 48.333 25.197 48.285 24.775 48.253 Z M 26.012 19.515 C 18.697 19.515 12.768 25.511 12.768 32.909 C 12.768 40.307 18.697 46.303 26.012 46.303 C 33.327 46.303 39.255 40.307 39.255 32.909 C 39.255 25.511 33.327 19.515 26.012 19.515 Z" style="fill: rgb(188, 129, 60);"/><rect x="2.134" y="29.386" width="47.756" height="7.047" style="paint-order: stroke; fill: rgb(188, 129, 60);"/><ellipse style="fill: rgb(188, 129, 60);" cx="26.012" cy="40.968" rx="6.061" ry="6.061"/><rect x="4.369" y="31.132" width="43.287" height="3.554" style="fill: rgb(255, 221, 182);"/></g></svg>